<svg width="28" height="29" viewBox="0 0 28 29" fill="none" xmlns="http://www.w3.org/2000/svg">
<path d="M27.1995 7.40908L5.3617 5.02821V3.39362C5.3617 1.52207 3.89096 0 2.08511 0H0.893617C0.400266 0 0 0.414561 0 0.925532C0 1.4365 0.400266 1.85106 0.893617 1.85106H2.08511C2.90658 1.85106 3.57447 2.5428 3.57447 3.39362V20.6702C3.57447 21.9811 4.30373 23.1074 5.35647 23.6725C4.98645 24.222 4.76596 24.8871 4.76596 25.6064C4.76596 27.4779 6.2367 29 8.04255 29C9.8484 29 11.3191 27.4779 11.3191 25.6064C11.3191 25.0481 11.1757 24.5289 10.9442 24.0638H19.4388C19.2072 24.5289 19.0638 25.0481 19.0638 25.6064C19.0638 27.4779 20.5346 29 22.3404 29C24.1463 29 25.617 27.4779 25.617 25.6064C25.617 23.7348 24.1463 22.2128 22.3404 22.2128H6.85106C6.02959 22.2128 5.3617 21.521 5.3617 20.6702V19.1277H15.7872H24.7234C26.5293 19.1277 28 17.6056 28 15.734V8.32979C28 7.85617 27.6556 7.45849 27.1995 7.40908ZM26.2128 12.2904L22.3404 12.0794V8.74043L26.2128 9.16253V12.2904ZM14.8936 13.527V17.2766H11.0213V13.316L14.8936 13.527ZM11.0213 11.4623V7.50684L14.8936 7.92878V11.6734L11.0213 11.4623ZM16.6809 13.6245L20.5532 13.8355V17.2766H16.6809V13.6245ZM16.6809 11.7709V8.12356L20.5532 8.54565V11.9819L16.6809 11.7709ZM9.23404 7.31206V11.3649L5.3617 11.1538V6.88997L9.23404 7.31206ZM9.53191 25.6064C9.53191 26.4572 8.86403 27.1489 8.04255 27.1489C7.22108 27.1489 6.55319 26.4572 6.55319 25.6064C6.55319 24.7556 7.22108 24.0638 8.04255 24.0638C8.86403 24.0638 9.53191 24.7556 9.53191 25.6064ZM23.8298 25.6064C23.8298 26.4572 23.1619 27.1489 22.3404 27.1489C21.5189 27.1489 20.8511 26.4572 20.8511 25.6064C20.8511 24.7556 21.5189 24.0638 22.3404 24.0638C23.1619 24.0638 23.8298 24.7556 23.8298 25.6064ZM5.3617 13.0075L9.23404 13.2185V17.2766H5.3617V13.0075ZM24.7234 17.2766H22.3404V13.933L26.2128 14.144V15.734C26.2128 16.5849 25.5449 17.2766 24.7234 17.2766Z" fill="url(#paint0_linear_24_135)"/>
<defs>
<linearGradient id="paint0_linear_24_135" x1="14" y1="0" x2="14" y2="29" gradientUnits="userSpaceOnUse">
<stop stop-color="#AC2CFF"/>
<stop offset="1" stop-color="#23AFFF"/>
</linearGradient>
</defs>
</svg>
