<svg width="11" height="11" viewBox="0 0 11 11" fill="none" xmlns="http://www.w3.org/2000/svg">
<path d="M8.06667 1.1L8.06667 10.2667L6.96667 10.2667L6.96667 4.03333C6.96634 3.7417 6.85034 3.4621 6.64412 3.25588C6.4379 3.04966 6.1583 2.93366 5.86667 2.93333L5.13333 2.93333C4.8417 2.93366 4.5621 3.04966 4.35588 3.25588C4.14966 3.4621 4.03366 3.7417 4.03333 4.03333L4.03333 10.2667L2.93333 10.2667L2.93333 6.23333C2.933 5.9417 2.817 5.6621 2.61079 5.45588C2.40457 5.24966 2.12497 5.13366 1.83333 5.13333L1.1 5.13333C0.808363 5.13366 0.528765 5.24966 0.322547 5.45588C0.116328 5.6621 0.00032974 5.9417 -2.08358e-07 6.23333L-1.60275e-08 10.6333C-1.17767e-08 10.7306 0.0386308 10.8238 0.107394 10.8926C0.176158 10.9614 0.269421 11 0.366667 11L10.6333 11C10.7306 11 10.8238 10.9614 10.8926 10.8926C10.9614 10.8238 11 10.7306 11 10.6333L11 1.1C10.9997 0.808363 10.8837 0.528765 10.6775 0.322546C10.4712 0.116329 10.1916 0.000330479 9.9 5.20932e-07L9.16667 5.52987e-07C8.87503 0.000330537 8.59543 0.116329 8.38921 0.322547C8.183 0.528765 8.067 0.808364 8.06667 1.1ZM4.76667 4.03333C4.76686 3.93615 4.80555 3.843 4.87427 3.77427C4.943 3.70555 5.03615 3.66686 5.13333 3.66667L5.86667 3.66667C5.96385 3.66686 6.057 3.70555 6.12573 3.77427C6.19445 3.843 6.23314 3.93615 6.23333 4.03333L6.23333 10.2667L4.76667 10.2667L4.76667 4.03333ZM1.1 5.86667L1.83333 5.86667C1.93052 5.86686 2.02367 5.90555 2.09239 5.97428C2.16111 6.043 2.19981 6.13615 2.2 6.23333L2.2 10.2667L0.733333 10.2667L0.733333 6.23333C0.733527 6.13615 0.77222 6.043 0.840941 5.97428C0.909663 5.90555 1.00281 5.86686 1.1 5.86667ZM9.9 0.733333C9.99719 0.733528 10.0903 0.77222 10.1591 0.840941C10.2278 0.909663 10.2665 1.00281 10.2667 1.1L10.2667 10.2667L8.8 10.2667L8.8 1.1C8.80019 1.00281 8.83889 0.909663 8.90761 0.840941C8.97633 0.77222 9.06948 0.733528 9.16667 0.733333L9.9 0.733333Z" fill="url(#paint0_linear_65_238)"/>
<defs>
<linearGradient id="paint0_linear_65_238" x1="5.5" y1="7.13262e-07" x2="5.5" y2="11" gradientUnits="userSpaceOnUse">
<stop stop-color="#29B7FF"/>
<stop offset="1" stop-color="#CD68FF"/>
</linearGradient>
</defs>
</svg>
