<svg width="10" height="11" viewBox="0 0 10 11" fill="none" xmlns="http://www.w3.org/2000/svg">
<path d="M9.55673 1.05875C9.52542 0.960781 9.45291 0.883437 9.35897 0.847344C9.26669 0.81125 9.16286 0.821562 9.07717 0.873125C6.85736 2.22922 5.3231 0.22 5.26048 0.134062C5.1995 0.0498437 5.10227 0 5.0001 0C5.0001 0 5.0001 0 4.99845 0C4.89628 0 4.80069 0.0498437 4.73807 0.134062C4.6738 0.22 3.14119 2.23094 0.919733 0.874844C0.834038 0.823281 0.731865 0.812969 0.63793 0.849063C0.545644 0.885156 0.473134 0.9625 0.440174 1.06047C0.395679 1.20141 -0.693627 4.60281 0.730217 7.54531C1.51959 9.17469 2.92201 10.3314 4.90122 10.9828C4.93253 10.9948 4.96714 11 5.0001 11C5.03306 11 5.06767 10.9948 5.09898 10.9845C7.07819 10.3331 8.48061 9.17641 9.26998 7.54703C10.6938 4.60281 9.60452 1.20141 9.55673 1.05875ZM8.67836 7.23937C7.98622 8.66937 6.74859 9.69719 5.0001 10.2953C3.25161 9.69719 2.01398 8.66938 1.32184 7.24109C0.286913 5.10641 0.730217 2.61594 0.960932 1.67063C2.92366 2.62625 4.42166 1.43859 5.0001 0.847344C5.57854 1.43687 7.07654 2.62625 9.03927 1.67063C9.26998 2.61594 9.71329 5.10641 8.67836 7.23937Z" fill="url(#paint0_linear_65_229)"/>
<path d="M7.02059 3.76925L4.40032 6.50206L2.97977 5.0205C2.85123 4.88644 2.64194 4.88644 2.5134 5.0205C2.38486 5.15456 2.38486 5.37284 2.5134 5.5069L4.16631 7.23081C4.22893 7.29612 4.31133 7.33222 4.39867 7.33222C4.48602 7.33222 4.57006 7.29612 4.63104 7.23081L7.48367 4.25565C7.61221 4.12159 7.61221 3.90331 7.48367 3.76925C7.35842 3.63519 7.14913 3.63519 7.02059 3.76925Z" fill="url(#paint1_linear_65_229)"/>
<defs>
<linearGradient id="paint0_linear_65_229" x1="5" y1="0" x2="5" y2="11" gradientUnits="userSpaceOnUse">
<stop stop-color="#29B7FF"/>
<stop offset="1" stop-color="#CD68FF"/>
</linearGradient>
<linearGradient id="paint1_linear_65_229" x1="4.99853" y1="3.6687" x2="4.99853" y2="7.33222" gradientUnits="userSpaceOnUse">
<stop stop-color="#29B7FF"/>
<stop offset="1" stop-color="#CD68FF"/>
</linearGradient>
</defs>
</svg>
