<svg width="5" height="11" viewBox="0 0 5 11" fill="none" xmlns="http://www.w3.org/2000/svg">
<path d="M4.08205 6.65607V1.61133C4.08205 1.18398 3.91229 0.77413 3.61011 0.471947C3.30792 0.169764 2.89807 0 2.47072 0C2.04337 0 1.63353 0.169764 1.33134 0.471947C1.02916 0.77413 0.859396 1.18398 0.859396 1.61133V6.65607C0.588645 6.88711 0.371502 7.17439 0.223087 7.49789C0.0746715 7.8214 -0.00145035 8.17337 2.09277e-05 8.5293C2.09277e-05 9.18457 0.260326 9.813 0.723673 10.2763C1.18702 10.7397 1.81545 11 2.47072 11C3.126 11 3.75443 10.7397 4.21778 10.2763C4.68112 9.813 4.94143 9.18457 4.94143 8.5293C4.9429 8.17337 4.86678 7.8214 4.71836 7.49789C4.56995 7.17439 4.3528 6.88711 4.08205 6.65607ZM2.47072 10.3555C2.08744 10.3555 1.71388 10.2349 1.40294 10.0108C1.09201 9.78666 0.85947 9.4704 0.738265 9.10678C0.617061 8.74317 0.613336 8.35064 0.727618 7.98479C0.8419 7.61894 1.0684 7.29833 1.37502 7.06836C1.41505 7.03834 1.44753 6.99942 1.4699 6.95467C1.49228 6.90992 1.50393 6.86058 1.50393 6.81055V1.61133C1.50393 1.35492 1.60579 1.10901 1.7871 0.9277C1.96841 0.74639 2.21431 0.644531 2.47072 0.644531C2.72713 0.644531 2.97304 0.74639 3.15435 0.9277C3.33566 1.10901 3.43752 1.35492 3.43752 1.61133V6.81055C3.43752 6.86058 3.44917 6.90992 3.47154 6.95467C3.49392 6.99942 3.5264 7.03834 3.56643 7.06836C3.87305 7.29833 4.09955 7.61894 4.21383 7.98479C4.32811 8.35064 4.32439 8.74317 4.20318 9.10678C4.08198 9.4704 3.84944 9.78666 3.53851 10.0108C3.22757 10.2349 2.85401 10.3555 2.47072 10.3555Z" fill="url(#paint0_linear_65_227)"/>
<path d="M2.79297 7.39277V4.21094C2.79297 4.12547 2.75902 4.0435 2.69858 3.98306C2.63815 3.92262 2.55618 3.88867 2.47071 3.88867C2.38524 3.88867 2.30327 3.92262 2.24283 3.98306C2.18239 4.0435 2.14844 4.12547 2.14844 4.21094V7.39277C1.87404 7.47056 1.63704 7.64496 1.48116 7.8838C1.32528 8.12265 1.26105 8.40981 1.30032 8.6923C1.33958 8.97479 1.4797 9.23355 1.69481 9.42083C1.90991 9.6081 2.1855 9.71126 2.47071 9.71126C2.75591 9.71126 3.0315 9.6081 3.24661 9.42083C3.46171 9.23355 3.60183 8.97479 3.64109 8.6923C3.68036 8.40981 3.61613 8.12265 3.46025 7.8838C3.30437 7.64496 3.06737 7.47056 2.79297 7.39277ZM2.47071 9.06641C2.36448 9.06641 2.26063 9.03491 2.1723 8.97589C2.08398 8.91687 2.01513 8.83298 1.97448 8.73484C1.93383 8.6367 1.92319 8.5287 1.94392 8.42451C1.96464 8.32032 2.0158 8.22462 2.09091 8.1495C2.16603 8.07439 2.26173 8.02323 2.36592 8.00251C2.47011 7.98178 2.5781 7.99242 2.67625 8.03307C2.77439 8.07373 2.85828 8.14257 2.9173 8.2309C2.97631 8.31922 3.00782 8.42307 3.00782 8.5293C3.00782 8.67175 2.95123 8.80836 2.8505 8.90909C2.74977 9.00982 2.61316 9.06641 2.47071 9.06641Z" fill="url(#paint1_linear_65_227)"/>
<defs>
<linearGradient id="paint0_linear_65_227" x1="2.47072" y1="0" x2="2.47072" y2="11" gradientUnits="userSpaceOnUse">
<stop stop-color="#29B7FF"/>
<stop offset="1" stop-color="#CD68FF"/>
</linearGradient>
<linearGradient id="paint1_linear_65_227" x1="2.47071" y1="3.88867" x2="2.47071" y2="9.71126" gradientUnits="userSpaceOnUse">
<stop stop-color="#29B7FF"/>
<stop offset="1" stop-color="#CD68FF"/>
</linearGradient>
</defs>
</svg>
