<svg width="9" height="11" viewBox="0 0 9 11" fill="none" xmlns="http://www.w3.org/2000/svg">
<path d="M4.21927 11C5.73437 11 7.14826 10.1749 7.90944 8.84677C8.60785 7.62801 8.6154 6.20172 7.92965 5.03149C7.9266 5.02632 7.92334 5.02127 7.91989 5.01639L4.37792 0.081361C4.34125 0.0302663 4.28218 -3.25182e-05 4.21927 2.61906e-08C4.15643 3.25706e-05 4.09742 0.0303314 4.06078 0.081361L0.518975 5.00272C0.51533 5.0078 0.511945 5.01304 0.508788 5.01844C-0.178061 6.19681 -0.169014 7.62974 0.533034 8.85155C1.29438 10.1766 2.7069 11 4.21927 11ZM0.841424 5.22314L4.21904 0.529855L7.59715 5.23665C8.21598 6.29861 8.20638 7.54307 7.57059 8.65261C6.87893 9.85964 5.59476 10.6095 4.21927 10.6095C2.84632 10.6095 1.56365 9.8613 0.871561 8.65697C0.232194 7.54424 0.221389 6.2932 0.841424 5.22314Z" fill="url(#paint0_linear_65_245)"/>
<path d="M4.19209 9.15785C5.48498 9.15785 6.53682 8.11112 6.53682 6.82442C6.53682 6.71656 6.4494 6.62915 6.34155 6.62915C6.2337 6.62915 6.14628 6.71656 6.14628 6.82442C6.14628 7.89568 5.26964 8.76732 4.19209 8.76732C4.08424 8.76732 3.99683 8.85473 3.99683 8.96258C3.99683 9.07043 4.08427 9.15785 4.19209 9.15785Z" fill="url(#paint1_linear_65_245)"/>
<defs>
<linearGradient id="paint0_linear_65_245" x1="4.21933" y1="0" x2="4.21933" y2="11" gradientUnits="userSpaceOnUse">
<stop stop-color="#29B7FF"/>
<stop offset="1" stop-color="#CD68FF"/>
</linearGradient>
<linearGradient id="paint1_linear_65_245" x1="5.26682" y1="6.62915" x2="5.26682" y2="9.15785" gradientUnits="userSpaceOnUse">
<stop stop-color="#29B7FF"/>
<stop offset="1" stop-color="#CD68FF"/>
</linearGradient>
</defs>
</svg>
