<svg width="15" height="17" viewBox="0 0 15 17" fill="none" xmlns="http://www.w3.org/2000/svg">
<path d="M15 4.26012C15 3.36387 14.3588 2.63721 13.568 2.63721H1.43198C0.641175 2.63721 0 3.36387 0 4.26012V12.7398C0 13.6361 0.641175 14.3627 1.43198 14.3627H13.568C14.3588 14.3627 15 13.6361 15 12.7398V4.26012ZM10.5698 7.63131L14.2117 3.97674C14.2374 4.06407 14.2499 4.15568 14.2482 4.2476V12.7118C14.2499 12.7684 14.2464 12.8251 14.2377 12.8809L10.5698 7.63131ZM13.543 3.44866C13.5831 3.44692 13.6234 3.44898 13.6633 3.45484L7.94861 9.17767C7.67704 9.44852 7.2701 9.44757 6.99951 9.17545L1.30011 3.45579C1.34024 3.44946 1.3808 3.44708 1.42121 3.44866H13.543ZM0.732632 12.9075C0.720046 12.8433 0.714452 12.7776 0.71599 12.7118V4.2476C0.714312 4.15583 0.726618 4.06439 0.752349 3.97722L4.35747 7.59882L0.732632 12.9075ZM1.42121 13.5107C1.35772 13.5125 1.2941 13.5047 1.23243 13.4874L4.88915 8.13514L6.5246 9.7796C7.06607 10.3235 7.88037 10.3246 8.42296 9.78214L10.0327 8.16937L13.7536 13.4809C13.6851 13.5028 13.614 13.5128 13.543 13.5107H1.42121Z" fill="#5C15E7"/>
</svg>
