<svg width="42" height="42" viewBox="0 0 42 42" fill="none" xmlns="http://www.w3.org/2000/svg">
<g clip-path="url(#clip0_250_104)">
<path d="M30 0H12C5.37258 0 0 5.37258 0 12V30C0 36.6274 5.37258 42 12 42H30C36.6274 42 42 36.6274 42 30V12C42 5.37258 36.6274 0 30 0Z" fill="white" fill-opacity="0.03"/>
<path d="M30 0.5H12C5.64873 0.5 0.5 5.64873 0.5 12V30C0.5 36.3513 5.64873 41.5 12 41.5H30C36.3513 41.5 41.5 36.3513 41.5 30V12C41.5 5.64873 36.3513 0.5 30 0.5Z" stroke="white" stroke-opacity="0.08"/>
<path d="M27.4351 26.0208L16.1214 14.7071C15.7309 14.3166 15.0977 14.3166 14.7072 14.7071C14.3167 15.0976 14.3167 15.7308 14.7072 16.1213L26.0209 27.435C26.4114 27.8256 27.0446 27.8256 27.4351 27.435C27.8256 27.0445 27.8256 26.4113 27.4351 26.0208Z" fill="white"/>
<path d="M26.4351 14.9792L15.1214 26.2929C14.7309 26.6834 14.7309 27.3166 15.1214 27.7071C15.5119 28.0976 16.1451 28.0976 16.5356 27.7071L27.8493 16.3934C28.2399 16.0029 28.2399 15.3697 27.8493 14.9792C27.4588 14.5887 26.8256 14.5887 26.4351 14.9792Z" fill="white"/>
</g>
<defs>
<clipPath id="clip0_250_104">
<rect width="42" height="42" fill="white"/>
</clipPath>
</defs>
</svg>
