<svg width="68" height="12" viewBox="0 0 68 12" fill="none" xmlns="http://www.w3.org/2000/svg">
<path d="M6.00024 0.999611L7.54524 4.12961L11.0002 4.63461L8.50024 7.06961L9.09024 10.5096L6.00024 8.88461L2.91024 10.5096L3.50024 7.06961L1.00024 4.63461L4.45524 4.12961L6.00024 0.999611Z" fill="#F1C82E"/>
<path d="M20.0002 0.999611L21.5452 4.12961L25.0002 4.63461L22.5002 7.06961L23.0902 10.5096L20.0002 8.88461L16.9102 10.5096L17.5002 7.06961L15.0002 4.63461L18.4552 4.12961L20.0002 0.999611Z" fill="#F1C82E"/>
<path d="M34.0002 0.999611L35.5452 4.12961L39.0002 4.63461L36.5002 7.06961L37.0902 10.5096L34.0002 8.88461L30.9102 10.5096L31.5002 7.06961L29.0002 4.63461L32.4552 4.12961L34.0002 0.999611Z" fill="#F1C82E"/>
<path d="M48.0002 0.999611L49.5452 4.12961L53.0002 4.63461L50.5002 7.06961L51.0902 10.5096L48.0002 8.88461L44.9102 10.5096L45.5002 7.06961L43.0002 4.63461L46.4552 4.12961L48.0002 0.999611Z" fill="#F1C82E"/>
<path d="M62.0002 0.999611L63.5452 4.12961L67.0002 4.63461L64.5002 7.06961L65.0902 10.5096L62.0002 8.88461L58.9102 10.5096L59.5002 7.06961L57.0002 4.63461L60.4552 4.12961L62.0002 0.999611Z" fill="#F1C82E"/>
</svg>
