<svg width="15" height="14" viewBox="0 0 15 14" fill="none" xmlns="http://www.w3.org/2000/svg">
<path d="M3.00867 9.30626C4.47861 10.9569 6.24809 12.2565 8.26772 13.1761C9.03666 13.5184 10.065 13.9246 11.2107 13.9942C11.2817 13.9971 11.3497 14 11.4207 14C12.1896 14 12.8072 13.7505 13.3106 13.237C13.3137 13.2341 13.3199 13.2283 13.323 13.2225C13.5021 13.0195 13.7059 12.8367 13.919 12.6424C14.0641 12.5118 14.2123 12.3755 14.3544 12.2362C15.0122 11.5922 15.0122 10.7741 14.3482 10.1504L12.4923 8.40696C12.1773 8.09946 11.8005 7.93701 11.4052 7.93701C11.01 7.93701 10.6301 8.09946 10.3059 8.40406L9.20033 9.4426C9.09842 9.38748 8.99343 9.33817 8.89461 9.29175C8.77108 9.23373 8.65682 9.17862 8.55491 9.1177C7.54819 8.5172 6.63411 7.73394 5.76017 6.72731C5.31857 6.20224 5.02211 5.76129 4.81521 5.31165C5.10549 5.06506 5.37725 4.80688 5.63974 4.5545C5.73238 4.46457 5.82811 4.37464 5.92384 4.28471C6.25736 3.9714 6.43647 3.60879 6.43647 3.24036C6.43647 2.87194 6.26045 2.50932 5.92384 2.19602L5.00359 1.33154C4.8955 1.23 4.79359 1.13137 4.6886 1.02984C4.48478 0.832574 4.2717 0.629507 4.06171 0.446747C3.74364 0.15375 3.36998 0 2.9747 0C2.58251 0 2.20576 0.153751 1.87533 0.449648L0.720376 1.5346C0.300393 1.92913 0.0626081 2.40779 0.0131983 2.96187C-0.0454758 3.6552 0.0904011 4.39204 0.442446 5.28264C0.982865 6.66059 1.79813 7.93991 3.00867 9.30626ZM0.766698 3.02279C0.803755 2.63697 0.961248 2.31496 1.25771 2.03647L2.40648 0.957315C2.58559 0.794861 2.78323 0.710734 2.9747 0.710734C3.16307 0.710734 3.35453 0.794861 3.53056 0.963116C3.73746 1.14298 3.93201 1.33154 4.142 1.5317C4.247 1.63324 4.35508 1.73477 4.46317 1.8392L5.38342 2.70369C5.57489 2.88355 5.67371 3.06631 5.67371 3.24617C5.67371 3.42603 5.57489 3.60879 5.38342 3.78865C5.28769 3.87857 5.19196 3.97141 5.09623 4.06133C4.80903 4.33402 4.54037 4.59221 4.24391 4.83879C4.23773 4.84459 4.23465 4.84749 4.22847 4.85329C3.97216 5.09407 4.0123 5.32325 4.07406 5.49731C4.07715 5.50601 4.08024 5.51181 4.08333 5.52051C4.32111 6.05719 4.65154 6.56776 5.16726 7.17696C6.09369 8.25031 7.06953 9.08288 8.14419 9.724C8.27698 9.80522 8.41904 9.86904 8.55183 9.93286C8.67535 9.99088 8.78961 10.046 8.89152 10.1069C8.90387 10.1127 8.91313 10.1185 8.92549 10.1243C9.02739 10.1736 9.12621 10.1969 9.22503 10.1969C9.47208 10.1969 9.63266 10.0489 9.68516 9.99959L10.8401 8.91463C11.0192 8.74637 11.2138 8.65644 11.4052 8.65644C11.6399 8.65644 11.8314 8.79279 11.9518 8.91463L13.814 10.661C14.1845 11.0091 14.1815 11.3862 13.8047 11.7547C13.675 11.8852 13.5391 12.0099 13.394 12.1405C13.1778 12.3378 12.9524 12.5408 12.7486 12.77C12.3934 13.1297 11.9704 13.298 11.4238 13.298C11.3713 13.298 11.3157 13.2951 11.2632 13.2922C10.2503 13.2312 9.30841 12.8599 8.60124 12.5437C6.68043 11.6705 4.99432 10.4318 3.59541 8.85951C2.44354 7.55698 1.66843 6.34438 1.1558 5.04476C0.837724 4.247 0.717288 3.60588 0.766698 3.02279Z" fill="#5C15E7"/>
</svg>
