<svg width="15" height="15" viewBox="0 0 15 15" fill="none" xmlns="http://www.w3.org/2000/svg">
<g clip-path="url(#clip0_59_513)">
<path d="M14.7704 1.61238C14.5873 1.38761 14.3125 1.26379 13.9965 1.26379C13.8261 1.26379 13.6455 1.29948 13.4598 1.36982L0.760453 6.18143C0.0852229 6.43732 -0.00565935 6.8225 0.000258841 7.02931C0.00614773 7.2351 0.117802 7.61169 0.797456 7.82909L3.49067 8.81605L4.91007 12.0651C5.05275 12.5145 5.35089 12.8297 5.73141 12.932C5.81913 12.9556 5.90869 12.9672 5.9989 12.9672C6.30793 12.9672 6.62435 12.8311 6.89761 12.5744L8.07358 11.4696L10.9429 13.4445C11.2013 13.6355 11.4825 13.7363 11.7566 13.7363C12.3131 13.7363 12.7569 13.3289 12.8873 12.6985L14.9643 2.65328C15.0497 2.24044 14.9808 1.87079 14.7704 1.61238ZM4.38323 8.66355L8.04814 6.69821L5.49395 9.04114C5.40301 9.12455 5.35235 9.24207 5.3522 9.36453C5.35203 9.36905 5.35147 9.37344 5.35144 9.37795L5.34262 10.8596L4.38323 8.66355ZM6.29583 11.9338C6.26873 11.9592 6.24157 11.9816 6.21474 12.0011L6.22549 10.1975L7.33269 10.9596L6.29583 11.9338ZM14.1036 2.47529L12.0266 12.5205C12.0057 12.6217 11.9374 12.8573 11.7566 12.8573C11.6721 12.8573 11.5673 12.8139 11.4616 12.7349C11.457 12.7315 11.4524 12.7282 11.4478 12.725L8.28449 10.5477C8.28405 10.5474 8.28361 10.5471 8.2832 10.5469L6.49474 9.31584L11.2192 4.9822C11.3824 4.83246 11.4087 4.58463 11.2805 4.40398C11.1523 4.22333 10.9096 4.16637 10.7144 4.27105L3.78415 7.9875L1.09088 7.00054C1.08891 6.99981 1.08695 6.9991 1.08496 6.9984L13.7712 2.19175C13.8781 2.15123 13.9528 2.14273 13.9965 2.14273C14.0182 2.14273 14.0707 2.14514 14.0888 2.1674C14.112 2.19591 14.1413 2.29286 14.1036 2.47529Z" fill="#5C15E7"/>
</g>
<defs>
<clipPath id="clip0_59_513">
<rect width="15" height="15" fill="white"/>
</clipPath>
</defs>
</svg>
